<svg width="44" height="44" viewBox="0 0 44 44" fill="none" xmlns="http://www.w3.org/2000/svg">
<g opacity="0.7">
<path d="M9.16666 31.1667H7.33333C6.36087 31.1667 5.42824 30.7804 4.74061 30.0927C4.05297 29.4051 3.66666 28.4725 3.66666 27.5V9.16667C3.66666 8.19421 4.05297 7.26157 4.74061 6.57394C5.42824 5.88631 6.36087 5.5 7.33333 5.5H36.6667C37.6391 5.5 38.5718 5.88631 39.2594 6.57394C39.947 7.26157 40.3333 8.19421 40.3333 9.16667V27.5C40.3333 28.4725 39.947 29.4051 39.2594 30.0927C38.5718 30.7804 37.6391 31.1667 36.6667 31.1667H34.8333" stroke="white" stroke-linecap="round" stroke-linejoin="round"/>
<path d="M22 27.5L31.1667 38.5H12.8333L22 27.5Z" stroke="white" stroke-linecap="round" stroke-linejoin="round"/>
</g>
</svg>
